<svg class="w-12 h-12" width="48" height="48" viewBox="0 0 48 48" fill="none"
    xmlns="http://www.w3.org/2000/svg">
    <path fill-rule="evenodd" clip-rule="evenodd" d="M24 48C37.2548 48 48 37.2548 48 24C48 10.7452 37.2548 0 24 0C10.7452 0 0 10.7452 0 24C0 30.8612 2.87918 37.05 7.49526 41.424C8.08984 41.0512 8.68027 40.6742 9.26615 40.293C9.3248 39.9639 9.39513 39.5653 9.47378 39.1119C9.5149 38.8804 9.5591 38.6352 9.61087 38.3794C9.65099 38.1735 9.69699 37.9618 9.74472 37.742L9.76469 37.6501C9.96246 36.7464 10.1699 35.731 10.3397 34.6667H10.2671C8.37285 34.7017 6.63539 34.1901 5.6319 33.0602C5.17355 32.5455 4.84917 31.9014 4.75323 31.1294C4.65121 30.304 4.80959 29.331 5.28012 28.2057L5.35317 27.9971L5.67298 28.0671C6.89574 28.3047 8.46113 28.6214 9.52705 30.004C10.0181 30.6397 10.4037 31.5041 10.5955 32.6987C10.6133 32.515 10.6293 32.3309 10.6433 32.1469C10.7258 31.0637 10.7451 29.9828 10.6567 28.9657C8.59508 28.153 6.94127 25.7409 6.4609 23.1092C6.27513 22.0905 6.25835 21.0382 6.47001 20.053C6.79283 18.55 7.61516 17.1994 9.01 16.2919L9.15619 16.1882L9.38613 16.3816C11.1982 17.8602 12.1072 19.9555 12.3539 22.2229C12.5869 24.3791 12.2123 26.6906 11.4449 28.7737L11.3249 29.0855C11.4751 30.076 11.5325 31.1274 11.5234 32.1849C11.5051 34.1995 11.2585 36.2324 10.9494 37.8906C10.9022 38.1495 10.8504 38.3993 10.794 38.6384C10.7316 38.8987 10.6647 39.1454 10.5961 39.3769L10.5819 39.4243C14.6626 36.6908 18.5016 33.7437 21.9554 30.5686C21.946 30.4399 21.9314 30.1898 21.9284 29.8475C21.9269 29.6846 21.9269 29.5049 21.9421 29.3069C21.957 29.1336 21.9831 28.9495 22.0105 28.7561C22.0281 28.6318 22.0463 28.5036 22.0624 28.372C22.1223 27.8919 22.1836 27.3759 22.2165 26.8523C20.9644 26.0101 19.901 24.8183 19.2086 23.5555C18.8706 22.9403 18.6209 22.3084 18.4747 21.7023C18.3178 21.0491 18.2661 20.4247 18.3483 19.8765C18.5051 18.8228 19.0549 18.0233 20.0934 17.7629C20.832 17.4812 21.6177 17.7554 22.3029 18.4102C22.9912 19.068 23.5729 20.1248 23.882 21.3384C24.3153 23.0507 24.1847 25.0613 23.0917 26.7086C23.1213 26.9646 23.1438 27.2213 23.1603 27.4751C23.1893 27.8984 23.2029 28.3095 23.1938 28.6933C23.1867 28.963 23.1784 29.2171 23.148 29.4481C25.3876 27.2974 27.4489 25.0448 29.2893 22.6859C29.7847 22.0523 30.1914 21.46 30.5528 20.8502L30.3927 20.545C29.5217 18.9324 29.0024 16.825 29.0283 14.8454C29.0405 13.9546 29.1623 13.0896 29.4029 12.313C29.6511 11.5136 30.0135 10.8009 30.5069 10.2482C31.2789 9.38021 32.3312 8.86713 33.6925 8.96001C34.559 8.94174 35.1574 9.45486 35.5046 10.2985C35.9964 11.4923 35.9476 13.4048 35.4284 15.2763C34.7874 17.5828 33.4125 19.7875 31.5636 20.6094C31.1214 21.488 30.6188 22.3009 29.9579 23.1929C29.6088 23.6637 29.2514 24.1308 28.8858 24.5941C29.0908 24.4987 29.3037 24.4057 29.5231 24.3153C29.8722 24.172 30.2361 24.0374 30.6104 23.9182C31.3077 22.558 32.5349 21.3509 33.9019 20.5661C34.5308 20.2053 35.1886 19.9343 35.8266 19.7744C36.4996 19.6054 37.1514 19.5475 37.7285 19.6327C38.8005 19.7911 39.6334 20.3546 39.9197 21.4433C40.2197 22.2199 40.2151 22.864 40.0141 23.3909C39.6928 24.2391 38.8279 24.7994 37.7057 25.1116C35.5327 25.7177 32.3837 25.3765 30.8259 24.7415L30.8253 24.7412C30.7593 24.7735 30.6937 24.8061 30.6286 24.8391C29.9478 25.1841 29.3387 25.5912 28.7974 25.953C28.6243 26.0687 28.4582 26.1797 28.2989 26.2826C28.014 26.467 27.7498 26.6175 27.5223 26.7471L27.5223 26.7471L27.5222 26.7472L27.5116 26.7532C27.1168 26.9764 26.8411 27.1164 26.742 27.1657C24.1986 30.0597 21.3428 32.7996 18.2555 35.3886C18.3518 35.3749 18.4521 35.3619 18.5563 35.3503C18.7243 35.3317 18.9009 35.3148 19.0844 35.2972C19.7144 35.2368 20.4261 35.1686 21.1525 35C21.3675 34.9498 21.5837 34.8942 21.7994 34.8319L21.8827 34.6502C22.8725 32.4193 24.6388 31.163 26.6275 30.595C27.4376 30.3651 28.2843 30.2479 29.1248 30.2342C30.4252 30.2144 31.7013 30.4322 32.8069 30.7352L33.1098 30.8052L32.9743 31.1737C32.0531 33.8294 30.3765 35.1572 28.5674 35.7298C26.3876 36.4192 23.9929 35.9881 22.4192 35.3969C21.8453 35.6873 21.251 35.9184 20.6713 36.1024C20.1978 36.2532 19.7394 36.3735 19.3069 36.4557C18.9765 36.5197 18.6644 36.573 18.3781 36.5897C18.0812 36.605 17.8177 36.5897 17.5939 36.5699C17.2871 36.5421 17.0611 36.5042 16.9311 36.4787C14.3234 38.5859 11.5651 40.5901 8.70176 42.4931C12.855 45.9327 18.1861 48 24 48ZM10.9601 27.4186C11.4983 25.7551 11.7613 23.9786 11.6291 22.2899C11.4722 20.2799 10.7596 18.3963 9.27646 16.9908C8.24404 17.8496 7.71414 19.0115 7.50705 20.2495C7.36086 21.1174 7.37604 22.0265 7.53289 22.9158C7.897 24.9848 8.996 26.9552 10.5111 27.8616C10.3961 27.2289 10.2271 26.6338 9.99156 26.0939C9.94283 25.9934 9.98548 25.8716 10.086 25.8229C10.188 25.7742 10.3099 25.8168 10.3586 25.9173C10.6014 26.3768 10.8 26.8811 10.9601 27.4186ZM22.4416 24.1494C22.5801 24.4412 22.695 24.7624 22.7897 25.1018C23.2784 23.9467 23.3198 22.6613 23.0901 21.518C22.8297 20.2222 22.2329 19.0969 21.4974 18.5457C21.1091 18.2548 20.6873 18.1239 20.2655 18.2579C19.6868 18.5228 19.4219 19.0101 19.3366 19.6024C19.2605 20.1339 19.3625 20.7445 19.568 21.3993C19.731 21.9139 19.9655 22.4485 20.2579 22.9799C20.7532 23.8808 21.4185 24.773 22.2255 25.4933C22.2019 25.0695 22.1485 24.6648 22.0472 24.2971C22.0076 24.1889 22.0624 24.0672 22.1705 24.026C22.2801 23.9865 22.4005 24.0413 22.4416 24.1494ZM24.1097 34.2798C23.9019 34.4599 23.6841 34.6272 23.4588 34.7826C24.8344 35.2304 26.6524 35.4928 28.3558 35.0172C29.9258 34.5771 31.3891 33.5035 32.3225 31.3762C31.1439 31.1935 29.8055 31.1707 28.4853 31.3413C27.5884 31.457 26.696 31.658 25.8707 32.0249C24.7991 32.5015 23.8372 33.2353 23.1337 34.3375C23.3823 34.2205 23.6248 34.0894 23.8585 33.9417C23.9513 33.8731 24.0838 33.893 24.1523 33.9859C24.2224 34.0788 24.2026 34.2097 24.1097 34.2798ZM32.2969 24.1333C33.8057 24.5482 35.9294 24.7384 37.5199 24.3791C38.9665 24.0502 39.9562 23.2447 39.4248 21.6199C39.1416 21.0032 38.6299 20.7154 38.0163 20.6226C37.4559 20.5373 36.8133 20.6454 36.1372 20.8647C35.5966 21.0383 35.0424 21.291 34.4987 21.6047C33.6285 22.1058 32.7917 22.7644 32.1563 23.5388C32.5888 23.4664 33.0266 23.4233 33.464 23.4184C33.5797 23.4093 33.6817 23.4945 33.6908 23.6102C33.7 23.726 33.6147 23.828 33.499 23.8371C33.0913 23.9018 32.6896 24.0043 32.2969 24.1333ZM32.9957 17.1385C32.7578 17.7985 32.5365 18.3895 32.3154 18.9355C33.3752 18.0202 34.169 16.5441 34.6488 15.0434C35.1878 13.3592 35.3325 11.6248 34.932 10.5208C34.7081 9.9071 34.3138 9.49902 33.6925 9.48532C32.7758 9.55079 32.0875 9.92841 31.5591 10.4857C31.0399 11.0339 30.7079 11.7771 30.4947 12.6207C30.3196 13.3151 30.2358 14.0749 30.2252 14.8606C30.2069 16.4976 30.5176 18.2381 31.1465 19.6527C31.1675 19.6446 31.1885 19.6363 31.2094 19.6278C31.5967 18.8338 31.9586 17.9598 32.3715 16.904C32.4354 16.7304 32.6288 16.6436 32.8008 16.7075C32.9744 16.773 33.0612 16.9664 32.9957 17.1385ZM5.89381 28.6625C5.67148 29.5625 5.66844 30.3208 5.79482 30.9634C5.90294 31.5116 6.12372 31.9669 6.44959 32.34C7.19269 33.1928 8.42302 33.6298 9.81024 33.7287C9.78284 32.2075 9.4509 31.1644 8.94078 30.435C8.13677 29.2838 6.91861 28.9168 5.89381 28.6625Z" fill="white" />
</svg>